<svg width="1074" height="651" viewBox="0 0 1074 651" fill="none" xmlns="http://www.w3.org/2000/svg">
<g clip-path="url(#clip0)">
<path d="M1073.54 651H404.716V648.845H1074L1073.54 651Z" fill="#2F2E41"/>
<path d="M5.47676 -8.27566e-06C4.02473 0.00142451 2.63267 0.491175 1.60593 1.3618C0.579194 2.23243 0.00162865 3.41285 -6.10352e-05 4.6441V272.142C0.00164407 273.373 0.579214 274.554 1.60595 275.424C2.63269 276.295 4.02474 276.785 5.47676 276.786H630.924C632.376 276.785 633.768 276.295 634.794 275.424C635.821 274.554 636.399 273.373 636.4 272.142V4.64406C636.399 3.41281 635.821 2.2324 634.794 1.36177C633.768 0.491147 632.376 0.00138743 630.924 -6.10352e-05L5.47676 -8.27566e-06Z" fill="#E6E6E6"/>
<path d="M14.2396 7.43051C12.7876 7.43196 11.3955 7.92171 10.3688 8.79232C9.34209 9.66294 8.76452 10.8433 8.76282 12.0746V264.711C8.76451 265.943 9.34207 267.123 10.3688 267.994C11.3955 268.864 12.7876 269.354 14.2396 269.355H622.161C623.613 269.354 625.005 268.864 626.032 267.994C627.058 267.123 627.636 265.943 627.638 264.711V12.0746C627.636 10.8433 627.058 9.66291 626.032 8.79229C625.005 7.92168 623.613 7.43194 622.161 7.43051H14.2396Z" fill="white"/>
<path d="M196.616 169.973H67.3643C65.3314 169.971 63.3825 169.285 61.945 168.066C60.5076 166.847 59.6991 165.195 59.6968 163.471V53.8711C59.6991 52.1473 60.5076 50.4947 61.945 49.2759C63.3825 48.057 65.3314 47.3713 67.3643 47.3694H196.616C198.649 47.3713 200.598 48.057 202.035 49.2759C203.473 50.4947 204.281 52.1473 204.283 53.8711V163.471C204.281 165.195 203.473 166.847 202.035 168.066C200.598 169.285 198.649 169.971 196.616 169.973ZM67.3643 49.227C65.9122 49.2285 64.5202 49.7182 63.4934 50.5888C62.4667 51.4594 61.8891 52.6399 61.8874 53.8711V163.471C61.8891 164.702 62.4667 165.883 63.4934 166.753C64.5202 167.624 65.9122 168.114 67.3643 168.115H196.616C198.068 168.114 199.46 167.624 200.487 166.753C201.513 165.883 202.091 164.702 202.093 163.471V53.8711C202.091 52.6399 201.513 51.4595 200.487 50.5889C199.46 49.7182 198.068 49.2285 196.616 49.227H67.3643Z" fill="#3F3D56"/>
<path d="M382.826 169.973H253.574C251.541 169.971 249.593 169.285 248.155 168.066C246.718 166.847 245.909 165.195 245.907 163.471V53.8711C245.909 52.1473 246.718 50.4947 248.155 49.2759C249.593 48.057 251.542 47.3713 253.574 47.3694H382.826C384.859 47.3713 386.808 48.057 388.245 49.2759C389.683 50.4947 390.491 52.1473 390.494 53.8711V163.471C390.491 165.195 389.683 166.847 388.245 168.066C386.808 169.285 384.859 169.971 382.826 169.973V169.973ZM253.574 49.227C252.122 49.2285 250.73 49.7182 249.704 50.5888C248.677 51.4595 248.099 52.6399 248.098 53.8711V163.471C248.099 164.702 248.677 165.883 249.704 166.753C250.73 167.624 252.122 168.114 253.574 168.115H382.826C384.278 168.114 385.67 167.624 386.697 166.753C387.724 165.883 388.301 164.702 388.303 163.471V53.8711C388.301 52.6399 387.724 51.4595 386.697 50.5888C385.67 49.7182 384.278 49.2285 382.826 49.227H253.574Z" fill="#E6E6E6"/>
<path d="M263.433 57.5863C261.981 57.5878 260.588 58.0775 259.562 58.9482C258.535 59.8188 257.957 60.9992 257.956 62.2305V155.112C257.957 156.343 258.535 157.523 259.562 158.394C260.588 159.265 261.981 159.754 263.433 159.756H372.968C374.42 159.754 375.812 159.265 376.839 158.394C377.865 157.523 378.443 156.343 378.445 155.112V62.2304C378.443 60.9992 377.865 59.8188 376.839 58.9481C375.812 58.0775 374.42 57.5877 372.968 57.5863L263.433 57.5863Z" fill="#D5D5D5"/>
<path d="M77.7701 57.5863C76.3181 57.5878 74.926 58.0775 73.8993 58.9482C72.8726 59.8188 72.295 60.9992 72.2933 62.2305V155.112C72.295 156.343 72.8726 157.523 73.8993 158.394C74.926 159.265 76.3181 159.754 77.7701 159.756H187.305C188.757 159.754 190.149 159.265 191.176 158.394C192.203 157.523 192.78 156.343 192.782 155.112V62.2304C192.78 60.9992 192.203 59.8188 191.176 58.9481C190.149 58.0775 188.757 57.5878 187.305 57.5863L77.7701 57.5863Z" fill="black"/>
<path d="M449.095 57.5863C447.643 57.5878 446.251 58.0775 445.224 58.9482C444.197 59.8188 443.62 60.9992 443.618 62.2305V155.112C443.62 156.343 444.197 157.523 445.224 158.394C446.251 159.265 447.643 159.754 449.095 159.756H558.63C560.082 159.754 561.474 159.265 562.501 158.394C563.528 157.523 564.105 156.343 564.107 155.112V62.2304C564.105 60.9991 563.528 59.8187 562.501 58.9481C561.474 58.0775 560.082 57.5877 558.63 57.5863L449.095 57.5863Z" fill="#7A77B9"/>
<path d="M569.036 169.973H439.784C437.752 169.971 435.803 169.285 434.365 168.066C432.928 166.847 432.119 165.195 432.117 163.471V53.8711C432.119 52.1474 432.928 50.4948 434.365 49.2759C435.803 48.0571 437.752 47.3714 439.784 47.3694H569.036C571.069 47.3714 573.018 48.0571 574.455 49.2759C575.893 50.4948 576.701 52.1474 576.704 53.8711V163.471C576.701 165.195 575.893 166.847 574.455 168.066C573.018 169.285 571.069 169.971 569.036 169.973ZM439.784 49.227C438.332 49.2285 436.94 49.7182 435.914 50.5888C434.887 51.4594 434.309 52.6399 434.308 53.8711V163.471C434.309 164.702 434.887 165.883 435.914 166.753C436.94 167.624 438.332 168.114 439.784 168.115H569.036C570.488 168.114 571.88 167.624 572.907 166.753C573.934 165.883 574.511 164.702 574.513 163.471V53.8711C574.511 52.6399 573.934 51.4595 572.907 50.5889C571.88 49.7182 570.488 49.2285 569.036 49.227H439.784Z" fill="#6C63FF"/>
<path opacity="0.8" d="M266.171 221.057C276.455 221.057 284.792 213.988 284.792 205.267C284.792 196.547 276.455 189.478 266.171 189.478C255.887 189.478 247.55 196.547 247.55 205.267C247.55 213.988 255.887 221.057 266.171 221.057Z" fill="#D4D4D4"/>
<path opacity="0.4" d="M371.325 221.057C381.609 221.057 389.946 213.988 389.946 205.267C389.946 196.547 381.609 189.478 371.325 189.478C361.041 189.478 352.704 196.547 352.704 205.267C352.704 213.988 361.041 221.057 371.325 221.057Z" fill="#E6E6E6"/>
<path opacity="0.6" d="M318.748 221.057C329.032 221.057 337.369 213.988 337.369 205.267C337.369 196.547 329.032 189.478 318.748 189.478C308.464 189.478 300.127 196.547 300.127 205.267C300.127 213.988 308.464 221.057 318.748 221.057Z" fill="#E6E6E6"/>
<path opacity="0.8" d="M79.9608 221.057C90.2449 221.057 98.5818 213.988 98.5818 205.267C98.5818 196.547 90.2449 189.478 79.9608 189.478C69.6767 189.478 61.3398 196.547 61.3398 205.267C61.3398 213.988 69.6767 221.057 79.9608 221.057Z" fill="black"/>
<path opacity="0.4" d="M185.115 221.057C195.399 221.057 203.736 213.988 203.736 205.267C203.736 196.547 195.399 189.478 185.115 189.478C174.831 189.478 166.494 196.547 166.494 205.267C166.494 213.988 174.831 221.057 185.115 221.057Z" fill="#616161"/>
<path opacity="0.6" d="M132.538 221.057C142.822 221.057 151.159 213.988 151.159 205.267C151.159 196.547 142.822 189.478 132.538 189.478C122.254 189.478 113.917 196.547 113.917 205.267C113.917 213.988 122.254 221.057 132.538 221.057Z" fill="#1A1A1A"/>
<path opacity="0.8" d="M452.381 221.057C462.665 221.057 471.002 213.988 471.002 205.267C471.002 196.547 462.665 189.478 452.381 189.478C442.097 189.478 433.76 196.547 433.76 205.267C433.76 213.988 442.097 221.057 452.381 221.057Z" fill="#563D7C"/>
<path opacity="0.4" d="M557.535 221.057C567.819 221.057 576.156 213.988 576.156 205.267C576.156 196.547 567.819 189.478 557.535 189.478C547.251 189.478 538.914 196.547 538.914 205.267C538.914 213.988 547.251 221.057 557.535 221.057Z" fill="#BD9DEA"/>
<path opacity="0.6" d="M504.958 221.057C515.242 221.057 523.579 213.988 523.579 205.267C523.579 196.547 515.242 189.478 504.958 189.478C494.674 189.478 486.337 196.547 486.337 205.267C486.337 213.988 494.674 221.057 504.958 221.057Z" fill="#7A77B9"/>
<path d="M492.703 138.654L466.442 110.023L481.713 99.9507L494.147 113.507L536.153 75.9082L550.199 87.192L492.703 138.654Z" fill="white"/>
<path d="M736.599 313.297C736.043 312.793 735.316 312.48 734.539 312.41C733.762 312.34 732.982 312.516 732.33 312.911L706.254 328.52C705.826 328.777 705.465 329.118 705.199 329.519C704.932 329.92 704.767 330.371 704.714 330.838C704.662 331.305 704.723 331.778 704.895 332.22C705.066 332.663 705.344 333.065 705.706 333.396L772.019 394.08C772.342 394.375 772.725 394.608 773.146 394.765C773.567 394.923 774.018 395.002 774.473 394.998C774.928 394.994 775.377 394.907 775.795 394.742C776.213 394.577 776.591 394.337 776.907 394.036L798.638 373.364C799.267 372.764 799.611 371.96 799.598 371.128C799.585 370.295 799.215 369.501 798.568 368.918L736.599 313.297Z" fill="black"/>
<path d="M711.391 330.19L714.089 328.609C713.805 329.074 713.701 329.615 713.793 330.142C713.886 330.669 714.17 331.151 714.599 331.511C715.028 331.871 715.577 332.087 716.156 332.123C716.736 332.159 717.312 332.014 717.79 331.712L735.253 320.677C735.65 320.427 735.962 320.079 736.155 319.673C736.347 319.268 736.411 318.821 736.34 318.383C736.27 317.945 736.066 317.535 735.754 317.198C735.442 316.861 735.033 316.612 734.574 316.479L735.964 315.664C736.144 315.558 736.359 315.512 736.571 315.534C736.784 315.556 736.982 315.645 737.132 315.784L795.878 368.844C795.966 368.926 796.035 369.023 796.081 369.129C796.128 369.235 796.151 369.349 796.148 369.464C796.146 369.578 796.119 369.691 796.069 369.796C796.018 369.901 795.945 369.996 795.855 370.074L774.52 389.181C774.343 389.334 774.108 389.418 773.865 389.415C773.622 389.412 773.39 389.322 773.217 389.164L711.233 331.524C711.134 331.433 711.058 331.323 711.012 331.201C710.965 331.08 710.949 330.95 710.964 330.822C710.979 330.694 711.025 330.571 711.099 330.462C711.173 330.352 711.273 330.259 711.391 330.19V330.19Z" fill="white"/>
<path d="M779.193 357.128L761.171 372.745L718.306 333.821L740.061 320.807L779.193 357.128Z" fill="#563D7C"/>
<path d="M719.972 343.427C720.089 343.32 720.155 343.174 720.155 343.022C720.155 342.87 720.089 342.724 719.972 342.617L716.224 339.172C716.105 339.067 715.947 339.009 715.783 339.009C715.618 339.009 715.461 339.067 715.342 339.172C715.225 339.279 715.16 339.425 715.16 339.577C715.16 339.729 715.225 339.875 715.342 339.982L719.09 343.427C719.209 343.532 719.367 343.59 719.531 343.59C719.696 343.59 719.854 343.532 719.972 343.427V343.427Z" fill="#E6E6E6"/>
<path d="M726.287 348.42L722.538 344.975C722.421 344.868 722.263 344.807 722.097 344.807C721.932 344.807 721.773 344.868 721.656 344.975C721.539 345.083 721.474 345.228 721.474 345.381C721.474 345.533 721.539 345.678 721.656 345.786L725.405 349.231C725.463 349.284 725.532 349.327 725.607 349.355C725.683 349.384 725.764 349.399 725.846 349.399C725.928 349.399 726.009 349.384 726.085 349.355C726.16 349.327 726.229 349.284 726.287 349.231C726.345 349.178 726.391 349.115 726.422 349.045C726.454 348.976 726.47 348.901 726.47 348.826C726.47 348.75 726.454 348.676 726.422 348.606C726.391 348.537 726.345 348.474 726.287 348.42V348.42Z" fill="#E6E6E6"/>
<path d="M778.777 374.402C781.102 374.402 782.987 372.67 782.987 370.533C782.987 368.396 781.102 366.664 778.777 366.664C776.452 366.664 774.567 368.396 774.567 370.533C774.567 372.67 776.452 374.402 778.777 374.402Z" fill="#563D7C"/>
<path d="M900.791 378.46L897.546 392.998C897.08 395.085 897.226 397.248 897.968 399.267C898.71 401.286 900.022 403.087 901.769 404.487C903.517 405.887 905.638 406.835 907.915 407.235C910.192 407.635 912.544 407.472 914.73 406.763V406.763C917.895 405.736 920.51 403.632 922.035 400.884C923.56 398.136 923.879 394.955 922.926 391.997L918.561 378.46L958.051 272.3H924.485L900.791 378.46Z" fill="#FFDBAC"/>
<path d="M865.25 167.047C882.153 167.047 895.855 154.453 895.855 138.919C895.855 123.384 882.153 110.791 865.25 110.791C848.348 110.791 834.646 123.384 834.646 138.919C834.646 154.453 848.348 167.047 865.25 167.047Z" fill="#FFDBAC"/>
<path d="M860.314 188.823L900.791 184.286C891.505 173.586 887.994 162.413 890.919 150.714L854.391 154.344L860.314 188.823Z" fill="#FFDBAC"/>
<path d="M809.965 345.795L905.727 325.833C926.196 311.203 939.493 282.181 949.765 247.088C957.25 221.514 943.801 194.286 917.368 183.742C916.736 183.49 916.098 183.247 915.453 183.014L893.88 175.213L858.34 177.935L845.659 181.113C842.97 181.787 840.552 183.165 838.699 185.079C836.846 186.993 835.639 189.361 835.223 191.894C818.175 249.385 806.938 302.707 809.965 345.795Z" fill="#BD9DEA"/>
<path d="M919.549 289.539H962L948.178 213.322L919.549 216.044V289.539Z" fill="#BD9DEA"/>
<path d="M776.398 619.816H802.067L855.871 446.058L876.635 619.816H906.714L918.561 341.258C914.04 319.886 914.137 294.416 916.587 266.856C937.757 253.234 930.004 220.898 932.348 188.41C932.37 188.095 932.261 187.783 932.041 187.539L918.399 181.022C918.215 180.827 917.969 180.69 917.695 180.631C917.422 180.571 917.135 180.593 916.875 180.693C916.616 180.792 916.398 180.965 916.251 181.185C916.105 181.405 916.038 181.663 916.06 181.92C915.713 204.635 922.376 231.65 911.651 249.616C899.998 213.006 884.81 182.267 855.245 175.404C854.686 175.277 854.1 175.287 853.547 175.434L848.042 176.88C847.431 177.042 846.884 177.364 846.469 177.807C846.054 178.25 845.789 178.794 845.705 179.373C845.622 179.953 845.724 180.542 845.999 181.069C846.274 181.596 846.711 182.037 847.255 182.34C874.303 197.698 891.785 223.413 892.893 266.855C871.848 294.229 851.353 310.432 814.46 330.36C812.602 331.367 811.028 332.762 809.865 334.431C808.702 336.101 807.982 337.998 807.764 339.97L776.398 619.816Z" fill="black"/>
<path d="M869.217 164.472L890.919 160.695L903.829 140.424C906.962 135.505 908.318 129.8 907.701 124.129C907.084 118.458 904.527 113.112 900.396 108.86V108.86C897.178 105.547 893.118 103.017 888.579 101.494C884.039 99.9705 879.16 99.5022 874.376 100.13L846.25 103.823C843.825 104.142 841.492 104.898 839.386 106.049C837.28 107.199 835.443 108.721 833.98 110.527C832.517 112.333 831.457 114.388 830.861 116.572C830.266 118.756 830.146 121.027 830.509 123.253L849.454 126.216L869.217 164.472Z" fill="black"/>
<path d="M746.347 650.212H791.558C793.692 650.212 795.802 649.79 797.743 648.974C799.685 648.158 801.412 646.967 802.808 645.483C804.205 643.999 805.237 642.257 805.835 640.373C806.434 638.49 806.584 636.51 806.276 634.569L803.438 616.683L782.917 615.286L742.139 632.816C740.283 633.614 738.741 634.92 737.724 636.555C736.707 638.191 736.266 640.075 736.46 641.95C736.694 644.21 737.837 646.31 739.665 647.837C741.493 649.365 743.876 650.212 746.347 650.212V650.212Z" fill="black"/>
<path d="M849.02 650.212H894.231C896.366 650.212 898.475 649.79 900.417 648.974C902.358 648.158 904.085 646.967 905.482 645.483C906.878 643.999 907.91 642.257 908.508 640.373C909.107 638.49 909.257 636.51 908.949 634.569L906.111 616.683L885.59 615.286L844.812 632.816C842.956 633.614 841.414 634.92 840.397 636.555C839.38 638.191 838.939 640.075 839.133 641.95V641.95C839.368 644.21 840.51 646.31 842.339 647.837C844.167 649.365 846.549 650.212 849.02 650.212V650.212Z" fill="black"/>
<path d="M763.091 345.067L743.532 351.316C741.187 352.065 739.105 353.381 737.503 355.125C735.902 356.868 734.841 358.976 734.432 361.227C734.022 363.477 734.279 365.788 735.176 367.915C736.073 370.043 737.576 371.91 739.528 373.319V373.319C741.79 374.953 744.55 375.897 747.423 376.022C750.296 376.146 753.14 375.444 755.559 374.013L773.387 363.468L834.259 306.6L843.693 239.758C844.895 231.244 843.734 222.59 840.319 214.6C836.903 206.61 831.345 199.543 824.16 194.058V194.058L804.309 295.878L763.091 345.067Z" fill="#FFDBAC"/>
<path d="M805.028 275.929H848.467L847.48 180.657C837.166 183.027 827.941 188.352 821.141 195.862C814.34 203.372 810.317 212.676 809.654 222.428L805.028 275.929Z" fill="#BD9DEA"/>
<path d="M856.318 148.666C859.286 148.666 861.692 146.012 861.692 142.739C861.692 139.465 859.286 136.811 856.318 136.811C853.35 136.811 850.944 139.465 850.944 142.739C850.944 146.012 853.35 148.666 856.318 148.666Z" fill="#FFDBAC"/>
</g>
<defs>
<clipPath id="clip0">
<rect width="1074" height="651" fill="white"/>
</clipPath>
</defs>
</svg>
