<svg width="1074" height="651" viewBox="0 0 1074 651" fill="none" xmlns="http://www.w3.org/2000/svg">
<path d="M846.591 535.889C869.211 594.481 861.267 649.494 861.267 649.494C861.267 649.494 816.648 609.513 794.028 550.921C771.408 492.33 779.352 437.316 779.352 437.316C779.352 437.316 823.971 477.298 846.591 535.889Z" fill="#BD9DEA"/>
<path d="M875.943 535.889C853.323 594.481 861.267 649.494 861.267 649.494C861.267 649.494 905.886 609.513 928.506 550.921C951.126 492.33 943.182 437.316 943.182 437.316C943.182 437.316 898.563 477.298 875.943 535.889Z" fill="#7A77B9"/>
<path d="M885.054 536.523C886.57 598.25 860.111 648.794 860.111 648.794C860.111 648.794 831.193 599.258 829.677 537.531C828.161 475.803 854.62 425.259 854.62 425.259C854.62 425.259 883.537 474.796 885.054 536.523Z" fill="#563D7C"/>
<path d="M857.365 488.013C861.243 488.013 864.386 485.307 864.386 481.97C864.386 478.633 861.243 475.927 857.365 475.927C853.488 475.927 850.344 478.633 850.344 481.97C850.344 485.307 853.488 488.013 857.365 488.013Z" fill="#BD9DEA"/>
<path d="M843.713 533.67C845.867 533.67 847.614 532.167 847.614 530.313C847.614 528.458 845.867 526.955 843.713 526.955C841.559 526.955 839.813 528.458 839.813 530.313C839.813 532.167 841.559 533.67 843.713 533.67Z" fill="#BD9DEA"/>
<path d="M796.126 500.434C798.28 500.434 800.026 498.931 800.026 497.077C800.026 495.223 798.28 493.72 796.126 493.72C793.971 493.72 792.225 495.223 792.225 497.077C792.225 498.931 793.971 500.434 796.126 500.434Z" fill="#563D7C"/>
<path d="M933.818 467.87C935.972 467.87 937.718 466.367 937.718 464.513C937.718 462.659 935.972 461.156 933.818 461.156C931.663 461.156 929.917 462.659 929.917 464.513C929.917 466.367 931.663 467.87 933.818 467.87Z" fill="#563D7C"/>
<path d="M816.409 531.991C818.563 531.991 820.309 530.488 820.309 528.634C820.309 526.78 818.563 525.277 816.409 525.277C814.255 525.277 812.508 526.78 812.508 528.634C812.508 530.488 814.255 531.991 816.409 531.991Z" fill="#563D7C"/>
<path d="M898.322 512.52C900.476 512.52 902.223 511.017 902.223 509.163C902.223 507.309 900.476 505.805 898.322 505.805C896.168 505.805 894.421 507.309 894.421 509.163C894.421 511.017 896.168 512.52 898.322 512.52Z" fill="#563D7C"/>
<path d="M818.749 581.341C820.903 581.341 822.65 579.838 822.65 577.984C822.65 576.13 820.903 574.627 818.749 574.627C816.595 574.627 814.849 576.13 814.849 577.984C814.849 579.838 816.595 581.341 818.749 581.341Z" fill="#563D7C"/>
<path d="M902.223 562.205C904.377 562.205 906.123 560.702 906.123 558.848C906.123 556.994 904.377 555.491 902.223 555.491C900.068 555.491 898.322 556.994 898.322 558.848C898.322 560.702 900.068 562.205 902.223 562.205Z" fill="#563D7C"/>
<path d="M864.387 565.562C866.541 565.562 868.287 564.059 868.287 562.205C868.287 560.351 866.541 558.848 864.387 558.848C862.232 558.848 860.486 560.351 860.486 562.205C860.486 564.059 862.232 565.562 864.387 565.562Z" fill="#BD9DEA"/>
<path d="M1039.1 647.124H29.2704V649.062H1039.1V647.124Z" fill="#2F2E41"/>
<path d="M503.563 88.0554H503.563C514.842 88.0554 525.659 91.9117 533.634 98.7759C541.61 105.64 546.09 114.95 546.09 124.657V169.736H461.035V124.657C461.035 114.95 465.516 105.64 473.491 98.7759C481.467 91.9117 492.284 88.0554 503.563 88.0554V88.0554Z" fill="#643302"/>
<path d="M421.641 194.394C421.641 194.394 378.218 182.45 371.056 193.238C363.893 204.026 369.265 220.208 371.056 226.372C372.846 232.537 386.276 304.97 422.089 285.706C457.902 266.442 421.641 194.394 421.641 194.394Z" fill="#3F3D56"/>
<path opacity="0.1" d="M421.641 194.394C421.641 194.394 378.218 182.45 371.056 193.238C363.893 204.026 369.265 220.208 371.056 226.372C372.846 232.537 386.276 304.97 422.089 285.706C457.902 266.442 421.641 194.394 421.641 194.394Z" fill="#563D7C"/>
<path d="M413.136 219.437H376.428C376.428 219.437 357.365 211.729 368.239 199.786C379.114 187.844 419.403 198.632 419.403 198.632L413.136 219.437Z" fill="#FFDBAC"/>
<path d="M636.07 279.541L671.882 310.364C671.882 310.364 701.428 307.282 707.695 316.529C713.962 325.776 664.72 326.546 664.72 326.546L613.687 282.624L636.07 279.541Z" fill="#FFDBAC"/>
<path d="M428.356 365.845L421.193 424.408C421.193 424.408 423.879 457.543 407.764 477.577C391.648 497.612 377.323 576.981 377.323 576.981C377.323 576.981 358.521 614.738 375.532 617.05C392.543 619.362 392.543 592.392 392.543 592.392L402.392 562.34C402.392 562.34 427.461 523.041 436.414 495.3C436.414 495.3 464.169 459.854 464.169 442.902C464.169 425.949 474.913 365.845 474.913 365.845H428.356Z" fill="#FFDBAC"/>
<path d="M483.866 374.321L499.981 445.984C499.981 445.984 500.877 474.495 504.458 486.054C504.458 486.054 506.249 527.664 512.516 544.617C518.783 561.569 523.26 586.998 523.26 586.998L518.783 593.933L523.26 618.591L534.003 632.461L545.643 623.985L542.957 576.21C542.957 576.21 548.329 505.318 541.166 489.906L536.689 401.291L535.794 374.321H483.866Z" fill="#FFDBAC"/>
<path d="M456.111 201.714L423.879 375.862C423.879 375.862 466.855 372.01 480.284 381.256C493.714 390.503 541.166 385.109 541.166 385.109L543.547 224.934L527.736 194.009L473.122 190.156L456.111 201.714Z" fill="#7A77B9"/>
<path d="M482.97 143.922C482.97 143.922 487.447 179.368 482.97 183.221C478.494 187.073 531.318 183.221 531.318 183.221C531.318 183.221 516.992 146.233 518.783 141.61C520.574 136.986 482.97 143.922 482.97 143.922Z" fill="#FFDBAC"/>
<path opacity="0.1" d="M482.97 143.922C482.97 143.922 487.447 179.368 482.97 183.221C478.494 187.073 531.318 183.221 531.318 183.221C531.318 183.221 516.992 146.233 518.783 141.61C520.574 136.986 482.97 143.922 482.97 143.922Z" fill="#4E3D04" fill-opacity="0.66"/>
<path d="M503.563 170.891L482.97 162.415C482.97 162.415 472.227 159.333 472.227 163.956C472.227 168.58 465.064 169.35 467.75 173.974C470.436 178.597 488.342 194.779 553.7 190.156C553.7 190.156 567.13 186.303 582.351 195.55C582.351 195.55 574.293 177.827 535.794 155.48L503.563 170.891Z" fill="#563D7C"/>
<path d="M472.227 170.121C472.227 170.121 461.483 177.056 461.483 178.597C461.483 180.138 414.926 294.182 414.926 294.182C414.926 294.182 328.976 371.239 336.138 377.404C343.301 383.568 345.987 388.191 356.731 389.733C356.731 389.733 380.904 424.408 439.995 419.014L482.97 234.849L499.086 204.796C499.086 204.796 494.61 331.169 507.144 331.169H523.26C523.26 331.169 525.05 427.49 534.899 427.49C544.747 427.49 554.596 424.408 553.701 420.555C552.805 416.702 551.015 377.404 551.015 377.404C551.015 377.404 576.083 388.962 576.083 382.027C576.083 375.092 567.13 318.84 567.13 318.84L561.758 184.762L541.166 172.433L472.227 170.121Z" fill="#563D7C"/>
<path d="M465.959 179.368H461.483C455.306 179.063 449.142 180.124 443.576 182.45L380.904 189.385C380.904 189.385 399.706 190.926 403.287 209.42C406.868 227.913 410.45 239.472 412.24 240.243C414.031 241.013 402.392 298.035 422.984 305.741C443.576 313.446 457.901 299.576 463.273 278.771C468.645 257.966 487.447 187.844 487.447 187.844L465.959 179.368Z" fill="#563D7C"/>
<path d="M566.235 183.221L584.141 195.55C584.141 195.55 585.037 205.567 595.78 214.043C606.524 222.519 647.709 284.165 645.918 285.706C644.128 287.247 581.455 291.1 585.037 308.052C588.618 325.005 562.654 324.234 562.654 324.234L539.375 203.255L566.235 183.221Z" fill="#563D7C"/>
<path d="M374.91 219.197L315.498 169.158C315.498 169.158 268.231 157.198 276.709 148.367C285.186 139.535 328.193 155.526 328.193 155.526L383.201 194.171L378.175 218.299C378.113 218.597 377.957 218.876 377.725 219.104C377.493 219.332 377.193 219.501 376.857 219.594C376.521 219.686 376.163 219.698 375.82 219.628C375.477 219.558 375.162 219.409 374.91 219.197Z" fill="#FFDBAC"/>
<path d="M368.37 583.916L356.731 618.591C356.731 618.591 346.882 645.782 368.37 648.094C389.857 650.406 385.381 634.994 385.381 634.994L388.134 610.685C388.134 610.685 371.444 622.132 370.16 607.033C369.451 597.31 371.769 587.601 376.875 578.907L368.37 583.916Z" fill="black"/>
<path d="M525.946 643.249L523.26 632.461H517.888L513.411 628.608C513.411 628.608 518.783 611.656 515.202 603.95C511.621 596.245 513.411 587.768 523.26 586.998C523.26 586.998 516.992 610.115 532.213 622.444C532.213 622.444 546.194 629.429 545.471 620.928L545.643 611.313L549.224 623.985C549.224 623.985 551.91 636.314 556.386 639.397C560.863 642.479 558.177 649.414 545.643 647.873C533.108 646.332 525.946 643.249 525.946 643.249Z" fill="black"/>
<path d="M499.534 202.87C501.017 202.87 502.22 201.835 502.22 200.558C502.22 199.282 501.017 198.247 499.534 198.247C498.05 198.247 496.848 199.282 496.848 200.558C496.848 201.835 498.05 202.87 499.534 202.87Z" fill="#2F2E41"/>
<path d="M503.115 154.324C520.422 154.324 534.451 142.249 534.451 127.354C534.451 112.459 520.422 100.384 503.115 100.384C485.809 100.384 471.779 112.459 471.779 127.354C471.779 142.249 485.809 154.324 503.115 154.324Z" fill="#FFDBAC"/>
<path d="M469.093 128.895L493.267 103.467C493.267 103.467 520.126 131.207 538.928 130.437L542.509 114.255L524.603 98.8434L502.22 94.2199L480.732 98.0728L463.045 113.511L469.093 128.895Z" fill="#643302"/>
<path d="M734.574 120C728.931 120 723.46 121.672 719.081 124.734C714.701 127.796 711.679 132.062 710.522 136.815C709.365 141.569 710.144 146.52 712.728 150.837C715.312 155.154 719.543 158.575 724.711 160.524C724.608 158.897 724.752 157.266 725.139 155.671C725.611 153.953 728.299 144.143 728.299 144.143C727.762 143.09 727.492 141.95 727.509 140.8C727.509 137.666 729.615 135.324 732.248 135.324C734.486 135.324 735.561 136.769 735.561 138.497C735.561 140.432 734.124 143.321 733.389 146.003C733.242 146.5 733.234 147.019 733.363 147.519C733.493 148.019 733.758 148.486 734.136 148.882C734.513 149.278 734.994 149.592 735.539 149.799C736.084 150.006 736.678 150.099 737.272 150.072C741.924 150.072 745.061 144.926 745.061 138.827C745.061 134.191 741.43 130.726 734.837 130.726C733.259 130.673 731.685 130.896 730.211 131.383C728.736 131.869 727.392 132.609 726.26 133.556C725.129 134.504 724.233 135.64 723.627 136.895C723.021 138.15 722.718 139.498 722.737 140.857C722.663 142.364 723.242 143.841 724.36 145.002C724.556 145.141 724.696 145.331 724.759 145.543C724.822 145.755 724.805 145.979 724.711 146.182C724.591 146.569 724.327 147.504 724.207 147.882C724.186 147.996 724.133 148.104 724.054 148.197C723.974 148.291 723.87 148.366 723.75 148.418C723.63 148.47 723.497 148.496 723.363 148.495C723.229 148.493 723.097 148.464 722.978 148.41C719.544 147.202 717.943 143.973 717.943 140.328C717.943 134.323 723.834 127.119 735.506 127.119C744.886 127.119 751.062 132.964 751.062 139.233C751.062 147.532 745.698 153.726 737.799 153.726C736.623 153.753 735.458 153.526 734.409 153.066C733.361 152.606 732.464 151.927 731.798 151.092C731.798 151.092 730.372 155.964 730.065 156.908C729.497 158.512 728.666 160.038 727.596 161.44C730.976 162.299 734.531 162.523 738.02 162.096C741.509 161.668 744.851 160.6 747.818 158.964C750.786 157.328 753.309 155.161 755.218 152.611C757.127 150.062 758.377 147.189 758.882 144.187C759.388 141.185 759.137 138.125 758.148 135.214C757.158 132.303 755.453 129.609 753.147 127.315C750.841 125.021 747.99 123.18 744.785 121.918C741.58 120.656 738.098 120.002 734.574 120L734.574 120Z" fill="black"/>
<path d="M161.769 187.296C159.83 188.034 157.775 188.521 155.67 188.741C157.889 187.598 159.55 185.799 160.343 183.68C158.259 184.748 155.977 185.498 153.596 185.899C152.141 184.558 150.25 183.626 148.171 183.223C146.091 182.82 143.919 182.965 141.936 183.64C139.954 184.314 138.253 185.486 137.055 187.004C135.858 188.522 135.218 190.315 135.221 192.149C135.217 192.852 135.309 193.552 135.495 194.236C131.269 194.056 127.135 193.111 123.362 191.463C119.589 189.815 116.262 187.501 113.598 184.671C112.239 186.687 111.824 189.073 112.438 191.343C113.051 193.613 114.647 195.596 116.9 196.889C115.207 196.853 113.55 196.461 112.073 195.746V195.86C112.073 197.972 112.921 200.019 114.475 201.654C116.029 203.289 118.192 204.411 120.597 204.829C119.685 205.042 118.745 205.15 117.8 205.15C117.129 205.151 116.461 205.095 115.803 204.981C116.482 206.798 117.804 208.388 119.584 209.528C121.364 210.667 123.513 211.299 125.732 211.335C121.969 213.88 117.32 215.261 112.534 215.253C111.687 215.252 110.841 215.208 110 215.121C114.837 217.83 120.487 219.267 126.258 219.257C145.818 219.257 156.503 205.311 156.503 193.216C156.503 192.819 156.493 192.423 156.471 192.036C158.55 190.739 160.344 189.134 161.769 187.296V187.296Z" fill="black"/>
<path d="M312.801 94H275.326C274.709 94.0003 274.118 94.2112 273.682 94.5866C273.245 94.9619 273 95.4709 273 96.0017V128.255C273 128.786 273.245 129.295 273.682 129.67C274.118 130.045 274.709 130.256 275.326 130.257H294.063V115.905H289.028V110.618H294.063V106.709C294.063 102.026 297.837 99.4762 302.697 99.4762C305.023 99.4762 307.524 99.6273 308.105 99.6934V104.584H304.233C301.589 104.584 301.084 105.661 301.084 107.247V110.618H307.381L306.558 115.905H301.084V130.257H312.801C313.417 130.256 314.009 130.045 314.445 129.67C314.881 129.295 315.126 128.786 315.126 128.255V96.0017C315.126 95.4709 314.881 94.9619 314.445 94.5866C314.009 94.2112 313.417 94.0003 312.801 94V94Z" fill="black"/>
<path d="M697.84 348.021C700.165 348.027 702.393 348.825 704.038 350.24C705.682 351.655 706.609 353.573 706.616 355.575V370.682C706.609 372.683 705.682 374.601 704.038 376.016C702.393 377.432 700.165 378.229 697.84 378.235H680.287C677.961 378.229 675.733 377.432 674.089 376.016C672.444 374.601 671.517 372.683 671.511 370.682V355.575C671.517 353.573 672.444 351.655 674.089 350.24C675.733 348.825 677.961 348.027 680.287 348.021H697.84V348.021ZM697.84 345H680.287C677.031 345.008 673.911 346.125 671.609 348.106C669.307 350.088 668.01 352.773 668 355.575V370.682C668.01 373.484 669.307 376.169 671.609 378.15C673.911 380.132 677.031 381.248 680.287 381.257H697.84C701.095 381.248 704.215 380.132 706.517 378.15C708.819 376.169 710.117 373.484 710.126 370.682V355.575C710.117 352.773 708.819 350.088 706.517 348.106C704.215 346.125 701.095 345.008 697.84 345V345Z" fill="black"/>
<path d="M700.472 355.575C699.952 355.575 699.443 355.442 699.01 355.193C698.577 354.944 698.239 354.59 698.04 354.176C697.841 353.762 697.788 353.306 697.89 352.867C697.992 352.427 698.242 352.023 698.611 351.706C698.979 351.39 699.448 351.174 699.959 351.086C700.469 350.999 700.999 351.044 701.48 351.215C701.961 351.387 702.372 351.677 702.662 352.05C702.951 352.422 703.105 352.861 703.105 353.309C703.106 353.607 703.039 353.902 702.907 354.177C702.774 354.452 702.581 354.702 702.336 354.913C702.091 355.123 701.801 355.29 701.481 355.404C701.161 355.517 700.818 355.576 700.472 355.575V355.575ZM689.063 357.086C690.452 357.086 691.809 357.44 692.964 358.104C694.118 358.768 695.018 359.712 695.55 360.816C696.081 361.92 696.22 363.135 695.949 364.307C695.678 365.479 695.01 366.556 694.028 367.401C693.046 368.246 691.795 368.822 690.433 369.055C689.071 369.288 687.659 369.168 686.376 368.711C685.093 368.254 683.997 367.479 683.225 366.485C682.454 365.492 682.042 364.323 682.042 363.128C682.044 361.526 682.784 359.99 684.1 358.857C685.417 357.724 687.202 357.087 689.063 357.086V357.086ZM689.063 354.064C686.98 354.064 684.944 354.596 683.212 355.592C681.48 356.588 680.13 358.003 679.333 359.66C678.536 361.316 678.328 363.138 678.734 364.897C679.14 366.655 680.143 368.27 681.616 369.538C683.089 370.805 684.966 371.668 687.009 372.018C689.051 372.368 691.169 372.188 693.093 371.502C695.018 370.816 696.663 369.655 697.82 368.164C698.977 366.673 699.595 364.921 699.595 363.128C699.594 360.724 698.484 358.419 696.509 356.72C694.534 355.02 691.856 354.065 689.063 354.064V354.064Z" fill="black"/>
<path d="M227.747 327.003H192.598C192.146 326.985 191.695 327.043 191.269 327.175C190.843 327.307 190.452 327.509 190.118 327.772C189.783 328.034 189.513 328.351 189.321 328.703C189.129 329.056 189.02 329.438 189 329.827V360.144C189.024 360.96 189.411 361.736 190.08 362.314C190.749 362.892 191.651 363.227 192.598 363.251H227.736C228.661 363.219 229.534 362.876 230.167 362.294C230.799 361.713 231.14 360.94 231.115 360.144V329.827C231.123 329.448 231.04 329.071 230.872 328.721C230.704 328.371 230.455 328.054 230.14 327.789C229.824 327.525 229.449 327.319 229.038 327.183C228.626 327.048 228.187 326.987 227.747 327.003ZM202.055 357.217H196.021V341.072H202.055V357.217ZM199.246 338.617H199.202C198.334 338.612 197.504 338.311 196.893 337.78C196.282 337.249 195.941 336.531 195.944 335.784C195.947 335.037 196.294 334.321 196.909 333.794C197.523 333.266 198.356 332.97 199.224 332.97C200.092 332.97 200.925 333.266 201.54 333.794C202.155 334.321 202.502 335.037 202.505 335.784C202.508 336.531 202.166 337.249 201.556 337.78C200.945 338.311 200.114 338.612 199.246 338.617ZM224.105 357.217H218.071V348.389C218.071 346.274 217.194 344.83 215.011 344.83C214.328 344.835 213.664 345.022 213.11 345.365C212.556 345.708 212.139 346.191 211.917 346.746C211.756 347.156 211.686 347.589 211.709 348.021V357.217H205.675V341.072H211.709V343.319C212.258 342.501 213.053 341.825 214.011 341.364C214.968 340.902 216.053 340.67 217.15 340.694C221.11 340.694 224.105 342.941 224.105 347.785L224.105 357.217Z" fill="black"/>
</svg>
